<?xml version="1.0" standalone="no"?>
<!DOCTYPE svg PUBLIC "-//W3C//DTD SVG 20010904//EN"
 "http://www.w3.org/TR/2001/REC-SVG-20010904/DTD/svg10.dtd">
<svg version="1.0" xmlns="http://www.w3.org/2000/svg"
 width="700.000000pt" height="700.000000pt" viewBox="0 0 700.000000 700.000000"
 preserveAspectRatio="xMidYMid meet">
<metadata>
Created by potrace 1.14, written by Peter Selinger 2001-2017
</metadata>
<g transform="translate(0.000000,700.000000) scale(0.100000,-0.100000)"
fill="#000000" stroke="none">
<path d="M1608 6572 c-7 -2 -20 -6 -28 -9 -28 -11 -40 -11 -40 -1 0 6 -10 3
-22 -8 -12 -10 -18 -13 -14 -6 9 14 -10 17 -19 2 -4 -6 -11 -8 -16 -4 -16 10
-59 12 -53 3 3 -5 -1 -9 -10 -9 -8 0 -16 5 -18 12 -3 7 -7 5 -11 -6 -5 -11 -3
-15 5 -10 7 4 8 3 4 -5 -6 -9 -11 -9 -22 0 -10 8 -14 8 -14 1 0 -6 -7 -9 -15
-6 -9 4 -15 0 -15 -7 0 -11 -2 -11 -10 1 -8 12 -10 12 -16 -3 -5 -15 -9 -15
-22 -5 -10 8 -13 8 -9 2 8 -14 -15 -24 -42 -19 -15 3 -18 0 -14 -13 6 -15 4
-15 -9 -4 -11 9 -18 10 -23 2 -3 -6 -11 -7 -17 -4 -7 5 -9 1 -5 -9 4 -11 1
-15 -14 -12 -10 2 -19 0 -19 -5 0 -5 -9 -7 -19 -5 -11 2 -27 -5 -36 -16 -10
-10 -21 -16 -25 -14 -4 3 -13 -2 -20 -10 -7 -8 -16 -12 -21 -10 -4 3 -6 -4 -4
-16 3 -16 1 -19 -6 -12 -8 8 -17 5 -30 -8 -11 -11 -25 -17 -31 -13 -7 5 -8 3
-3 -6 6 -10 4 -12 -9 -7 -10 4 -15 3 -11 -3 3 -6 -1 -10 -9 -10 -9 0 -16 -5
-16 -11 0 -5 -4 -7 -10 -4 -6 3 -7 -1 -4 -10 4 -10 2 -15 -7 -13 -8 2 -13 -3
-11 -11 2 -8 -3 -11 -12 -8 -9 4 -18 1 -22 -5 -5 -7 -2 -8 7 -3 12 8 12 6 0
-9 -8 -9 -20 -15 -27 -12 -8 3 -13 1 -11 -3 1 -5 -9 -19 -23 -31 -14 -12 -25
-29 -25 -37 0 -9 -7 -18 -15 -20 -13 -4 -13 -3 0 7 13 10 13 11 0 7 -8 -2 -15
-9 -15 -16 0 -7 -8 -18 -17 -25 -10 -7 -18 -18 -18 -25 0 -6 -5 -11 -11 -11
-6 0 -8 -7 -5 -16 6 -15 4 -15 -11 -3 -10 7 -15 9 -11 5 4 -5 2 -16 -5 -24
-10 -13 -9 -14 2 -7 10 6 12 4 6 -4 -4 -7 -16 -10 -27 -8 -15 4 -17 3 -8 -8
14 -17 4 -38 -13 -28 -7 4 -5 -2 3 -13 8 -10 11 -16 6 -12 -14 12 -35 -15 -24
-30 8 -9 7 -11 -5 -7 -8 4 -18 1 -23 -6 -4 -8 -3 -10 4 -5 22 13 12 -11 -11
-28 -12 -9 -16 -14 -9 -11 6 3 12 1 12 -4 0 -6 -5 -11 -11 -11 -5 0 -7 -4 -4
-10 3 -5 -1 -20 -10 -33 -8 -13 -12 -27 -8 -32 5 -4 2 -5 -6 0 -11 6 -13 3 -9
-13 4 -12 1 -25 -4 -29 -7 -4 -8 -1 -3 7 6 9 4 11 -4 6 -7 -5 -10 -14 -7 -21
2 -7 -1 -21 -9 -31 -7 -10 -10 -25 -7 -33 3 -8 1 -12 -4 -9 -5 4 -9 -16 -9
-43 1 -33 -3 -49 -12 -49 -7 0 -10 -7 -7 -15 4 -8 11 -12 18 -8 6 3 4 -2 -5
-13 -18 -21 -19 -26 -21 -126 -2 -43 -6 -64 -13 -60 -5 3 -4 -1 2 -9 10 -12
10 -18 0 -29 -8 -8 -8 -11 -1 -7 15 9 27 -20 12 -29 -7 -4 -8 -3 -4 4 5 8 1
10 -10 5 -11 -4 -13 -8 -6 -11 7 -2 12 -10 12 -18 0 -9 4 -13 9 -10 11 7 8
-21 -4 -31 -4 -4 -5 -2 0 6 5 10 4 12 -4 7 -6 -4 -9 -11 -6 -16 11 -18 12
-139 1 -133 -8 5 -8 3 0 -8 16 -21 26 -51 14 -44 -6 3 -10 1 -10 -5 0 -6 -5
-8 -12 -4 -7 4 -8 3 -4 -5 4 -6 11 -9 16 -6 4 3 10 -2 14 -10 3 -8 0 -17 -6
-21 -7 -5 -8 -2 -3 6 5 8 4 11 -3 6 -7 -4 -8 -17 -1 -39 11 -40 11 -40 -4 -31
-9 6 -9 4 -1 -7 16 -21 26 -51 14 -44 -6 3 -10 1 -10 -5 0 -6 -5 -8 -12 -4 -7
4 -8 3 -4 -5 4 -6 11 -9 16 -6 4 3 10 -2 14 -10 3 -8 0 -17 -6 -21 -7 -5 -8
-2 -3 6 5 8 4 11 -3 6 -6 -4 -8 -17 -3 -34 4 -15 6 -39 5 -55 -2 -16 1 -25 7
-21 6 3 5 -4 -3 -16 -11 -19 -11 -23 1 -28 10 -3 7 -9 -10 -19 -13 -8 -16 -12
-7 -9 19 5 33 -20 16 -30 -7 -5 -8 -2 -3 7 5 8 4 10 0 6 -12 -10 -16 -39 -5
-32 13 8 6 -70 -7 -87 -10 -12 -10 -15 2 -15 8 0 11 5 8 10 -3 6 -1 7 6 3 8
-5 9 -12 2 -20 -11 -13 -10 -34 2 -53 4 -6 2 -15 -4 -19 -8 -5 -9 -3 -4 6 5 8
4 11 -3 6 -6 -4 -8 -17 -4 -34 4 -15 7 -57 6 -94 -1 -39 3 -65 8 -62 5 4 4 -4
-4 -16 -11 -19 -11 -23 1 -28 10 -3 7 -9 -10 -19 -13 -8 -16 -12 -7 -9 19 5
33 -20 16 -30 -7 -5 -8 -2 -3 6 5 8 4 11 -3 7 -12 -8 -6 -41 16 -81 3 -5 0 -6
-6 -2 -7 4 -12 2 -12 -4 0 -6 -5 -8 -12 -4 -7 4 -8 3 -4 -5 4 -6 11 -9 16 -6
4 3 10 -2 14 -10 3 -8 0 -17 -6 -21 -7 -5 -8 -2 -3 6 5 8 4 11 -3 6 -7 -4 -8
-17 -1 -39 11 -40 11 -40 -4 -31 -9 6 -9 4 -1 -7 16 -21 26 -51 14 -44 -6 3
-10 1 -10 -5 0 -6 -5 -8 -12 -4 -7 4 -8 3 -4 -5 4 -6 11 -9 16 -6 4 3 10 -2
14 -10 3 -8 0 -17 -6 -21 -7 -5 -8 -2 -3 6 5 8 4 11 -3 6 -7 -4 -7 -18 -2 -39
11 -43 8 -101 -7 -119 -10 -12 -10 -15 2 -15 8 0 11 5 8 10 -3 6 -1 7 6 3 8
-5 9 -12 2 -20 -11 -13 -10 -34 2 -53 4 -6 2 -15 -4 -19 -8 -5 -9 -3 -4 6 5 9
4 11 -4 6 -6 -4 -9 -12 -5 -17 3 -5 7 -53 9 -107 2 -72 -1 -101 -11 -113 -12
-13 -12 -16 1 -16 8 0 11 5 8 10 -3 6 -1 7 6 3 8 -5 9 -12 2 -20 -11 -13 -10
-34 2 -53 4 -6 2 -15 -4 -19 -8 -5 -9 -3 -4 6 5 9 4 11 -4 6 -6 -4 -9 -11 -6
-16 11 -18 12 -139 1 -133 -8 5 -8 3 0 -8 16 -21 26 -51 14 -44 -6 3 -10 1
-10 -5 0 -6 -5 -8 -12 -4 -7 4 -8 3 -4 -5 4 -6 11 -9 16 -6 4 3 10 -2 14 -10
3 -8 0 -17 -6 -21 -7 -5 -8 -2 -3 6 5 8 4 11 -3 6 -7 -4 -8 -17 -1 -39 11 -40
11 -40 -3 -31 -10 6 -10 4 -2 -7 16 -21 26 -51 14 -44 -6 3 -10 1 -10 -5 0 -6
-5 -8 -12 -4 -7 4 -8 3 -4 -5 4 -6 11 -9 16 -6 4 3 10 -2 14 -10 3 -8 0 -17
-6 -21 -7 -5 -8 -2 -3 6 5 8 4 11 -3 6 -6 -4 -8 -17 -3 -34 4 -15 6 -39 5 -55
-2 -16 1 -25 7 -21 6 3 5 -4 -3 -16 -11 -19 -11 -23 1 -28 10 -3 7 -9 -10 -19
-13 -8 -16 -12 -7 -9 19 5 33 -20 16 -30 -7 -5 -8 -2 -3 7 5 8 4 10 0 6 -12
-10 -16 -39 -5 -32 13 8 6 -70 -7 -87 -10 -12 -10 -15 2 -15 8 0 11 5 8 10 -3
6 -1 7 6 3 8 -5 9 -12 2 -20 -11 -13 -10 -34 2 -53 4 -6 2 -15 -4 -19 -8 -5
-9 -3 -4 6 5 8 4 11 -3 6 -6 -4 -8 -17 -4 -34 4 -15 7 -57 6 -94 -1 -39 3 -65
8 -62 5 4 4 -4 -4 -16 -11 -19 -11 -23 1 -28 10 -3 7 -9 -10 -19 -13 -8 -16
-12 -7 -9 19 5 33 -20 16 -30 -7 -5 -8 -2 -3 6 5 8 4 11 -3 7 -12 -8 -6 -41
16 -81 3 -5 0 -6 -6 -2 -7 4 -12 2 -12 -4 0 -6 -5 -8 -12 -4 -7 4 -8 3 -4 -5
4 -6 11 -9 16 -6 4 3 10 -2 14 -10 3 -8 0 -17 -6 -21 -7 -5 -8 -2 -3 6 5 8 4
11 -3 6 -7 -4 -8 -17 -1 -39 11 -40 11 -40 -3 -31 -10 6 -10 4 -2 -7 16 -21
26 -51 14 -44 -6 3 -10 1 -10 -5 0 -6 -5 -8 -12 -4 -7 4 -8 3 -4 -5 4 -6 11
-9 16 -6 4 3 10 -2 14 -10 3 -8 0 -17 -6 -21 -7 -5 -8 -2 -3 6 5 8 4 11 -3 6
-7 -4 -7 -18 -2 -39 11 -43 8 -101 -7 -119 -10 -12 -10 -15 2 -15 8 0 11 5 8
10 -3 6 -1 7 6 3 8 -5 9 -12 2 -20 -11 -13 -10 -34 2 -53 4 -6 2 -15 -4 -19
-8 -5 -9 -3 -4 6 5 8 4 11 -3 6 -6 -4 -8 -17 -4 -34 4 -15 7 -53 7 -84 -1 -32
3 -58 7 -58 5 0 4 -9 -2 -20 -9 -17 -8 -20 7 -20 15 0 16 -2 3 -10 -8 -5 -10
-10 -5 -10 6 0 3 -5 -5 -10 -13 -8 -12 -10 4 -10 16 0 17 -3 8 -12 -16 -16
-15 -28 3 -28 8 0 15 -4 15 -10 0 -5 -6 -10 -12 -10 -10 0 -10 -2 -1 -8 7 -4
11 -18 9 -29 -4 -17 -1 -20 12 -16 14 6 15 4 4 -9 -9 -11 -9 -17 -2 -20 6 -2
12 -20 13 -40 1 -20 5 -34 9 -31 8 4 12 -11 9 -34 -1 -6 8 -14 19 -18 17 -5
19 -10 9 -21 -9 -11 -9 -14 1 -14 8 0 11 -3 7 -6 -3 -3 3 -16 14 -27 14 -16
16 -23 7 -29 -11 -7 -5 -12 13 -10 3 0 11 -9 19 -21 12 -21 12 -21 -5 -7 -18
14 -18 13 0 -12 11 -15 23 -28 27 -28 4 0 5 -6 3 -12 -3 -7 7 -26 22 -43 16
-16 27 -33 26 -37 -2 -5 4 -8 13 -8 8 0 12 -4 9 -10 -3 -5 -1 -10 5 -10 6 0 8
-5 4 -12 -5 -9 -2 -8 9 1 15 12 17 12 11 -2 -7 -21 71 -101 88 -91 7 4 8 3 4
-4 -4 -7 -2 -12 4 -12 6 0 8 -4 5 -10 -3 -5 1 -10 10 -10 9 0 13 -4 10 -10 -3
-5 4 -10 15 -10 13 0 24 -8 27 -20 3 -11 11 -20 17 -20 6 0 18 -9 26 -20 11
-15 17 -17 29 -7 12 9 13 9 7 0 -4 -8 2 -17 18 -24 14 -7 23 -16 19 -22 -3 -5
0 -8 8 -5 7 2 20 -3 29 -12 8 -9 11 -10 6 -3 -6 10 -4 12 8 7 9 -3 16 -12 16
-20 0 -17 12 -18 27 -3 8 8 11 6 10 -7 -2 -14 6 -20 28 -22 18 -2 39 -14 53
-30 12 -15 20 -19 17 -10 -7 17 17 20 32 3 4 -4 1 -5 -7 0 -12 6 -12 5 -3 -5
11 -12 25 -15 76 -19 10 0 15 -6 12 -11 -3 -6 -1 -10 4 -10 6 0 11 6 12 13 0
6 4 3 9 -8 5 -11 9 -14 9 -6 1 11 4 11 18 0 9 -8 14 -9 10 -2 -5 7 0 9 13 6
11 -3 20 -10 20 -15 0 -6 8 -4 17 3 11 10 14 10 9 2 -5 -10 3 -13 31 -13 22 0
45 -6 52 -12 11 -11 13 -10 7 0 -4 6 -2 12 3 12 6 0 11 -6 11 -12 0 -8 3 -9 8
-3 8 12 77 14 88 3 4 -4 -3 -6 -14 -3 -12 2 -24 1 -26 -3 -2 -4 506 -7 1129
-7 1005 0 1132 2 1128 15 -4 13 -3 13 9 0 11 -13 41 -15 165 -15 83 0 149 3
147 7 -3 5 0 8 5 8 6 0 11 -3 11 -8 0 -4 69 -7 154 -7 85 0 152 3 149 8 -2 4
1 7 6 7 6 0 11 -3 11 -8 0 -4 69 -7 154 -7 85 0 152 3 149 8 -2 4 1 7 6 7 6 0
11 -3 11 -8 0 -4 69 -7 154 -7 85 0 152 3 149 8 -2 4 1 7 6 7 6 0 11 -4 11 -8
0 -4 51 -8 113 -7 87 0 115 3 125 15 12 13 13 13 8 -2 -3 -10 -1 -18 4 -18 6
0 10 8 10 18 0 14 2 15 10 2 7 -11 10 -11 10 -2 0 7 5 10 10 7 6 -4 18 -1 27
7 11 8 14 9 10 1 -6 -9 1 -12 23 -10 16 1 30 5 30 10 0 4 5 7 11 7 5 0 8 -4 5
-8 -7 -11 31 -8 41 3 5 4 2 5 -4 1 -7 -4 -13 -5 -13 -2 0 3 9 10 20 16 17 9
19 8 13 -7 -5 -15 -3 -16 8 -5 7 6 21 12 30 12 9 0 22 7 29 15 10 12 16 13 26
4 9 -7 14 -8 14 -1 0 5 7 13 16 16 10 4 13 2 8 -7 -6 -9 -4 -9 8 1 8 7 24 10
34 6 16 -5 16 -4 4 5 -14 10 -7 15 13 12 4 -1 15 5 23 14 9 8 22 16 30 16 8 1
19 2 24 3 6 0 15 8 20 16 5 8 12 11 16 8 3 -4 16 2 27 13 12 11 27 17 35 14 7
-2 11 -1 8 4 -7 11 22 23 36 14 7 -3 8 -1 4 5 -4 7 -1 12 8 12 10 0 13 6 9 17
-3 10 -3 15 2 11 4 -4 15 -2 23 5 13 10 15 9 8 -3 -4 -8 3 -3 16 13 13 15 29
27 36 27 8 0 10 5 6 12 -5 8 0 9 14 6 12 -4 20 -2 17 2 -3 5 2 15 11 24 8 9
13 20 9 26 -3 6 1 7 9 4 11 -4 16 0 17 12 0 12 3 14 6 6 4 -10 8 -10 19 -1 11
9 11 15 3 25 -8 10 -6 12 10 9 15 -3 18 0 14 12 -4 11 -2 14 5 9 7 -4 12 -2
12 5 0 6 10 22 23 35 50 51 62 66 63 75 1 5 2 14 3 20 0 5 5 8 9 5 5 -3 15 10
24 29 9 21 11 32 4 29 -6 -3 -3 1 8 10 10 8 15 19 12 24 -3 5 4 12 15 15 18 5
19 8 8 29 -6 13 -8 20 -4 16 11 -11 34 23 35 50 0 13 4 21 9 17 6 -3 8 4 6 15
-2 11 1 20 6 20 6 0 8 4 5 9 -3 5 1 14 9 21 12 10 13 16 3 28 -10 13 -10 14 0
8 12 -7 13 -4 15 51 1 17 4 30 8 27 10 -6 16 16 14 56 -1 21 5 40 14 48 9 8
11 11 4 8 -14 -8 -27 10 -14 18 5 4 7 21 5 39 -4 24 -2 28 5 17 9 -12 11 -11
11 8 0 13 -4 21 -8 18 -4 -2 -8 8 -7 24 0 23 2 26 14 17 12 -10 12 -9 2 11 -7
13 -17 20 -24 15 -9 -5 -9 -3 -1 8 6 8 10 33 9 56 -1 36 1 40 14 30 12 -10 13
-9 2 11 -7 13 -17 20 -24 15 -9 -5 -9 -3 -1 8 6 8 11 25 9 39 -1 14 5 36 14
50 15 23 15 24 -2 11 -19 -15 -24 -2 -5 17 7 7 9 12 5 12 -4 0 -2 10 4 23 l12
22 -24 -20 c-13 -11 -18 -13 -12 -4 7 8 11 25 8 38 -2 12 0 19 4 16 5 -3 11 2
14 10 4 10 1 12 -11 8 -15 -6 -15 -5 -3 10 11 14 11 17 0 17 -8 0 -6 5 6 13
14 11 15 16 5 22 -9 5 -11 4 -6 -3 4 -7 2 -12 -3 -12 -14 0 -14 13 1 28 9 9 9
12 -2 12 -10 0 -8 4 5 13 14 11 15 16 5 22 -8 5 -11 4 -7 -2 3 -5 0 -10 -8
-10 -13 0 -12 4 2 19 12 13 13 18 3 18 -9 0 -7 5 5 13 14 11 15 16 5 22 -9 5
-11 4 -6 -3 4 -7 3 -12 -2 -12 -5 0 -9 15 -8 34 1 28 3 32 15 23 12 -10 12 -9
2 11 -7 13 -17 20 -24 15 -9 -5 -9 -3 -1 8 6 8 11 25 9 39 -1 14 5 36 14 50
15 23 15 24 -2 11 -19 -15 -24 -2 -5 17 7 7 9 12 5 12 -4 0 -2 10 4 23 l12 22
-24 -20 c-13 -11 -18 -13 -12 -4 7 8 11 25 8 38 -2 12 0 19 4 16 5 -3 11 2 14
10 4 10 1 12 -11 8 -15 -6 -15 -5 -3 10 11 14 11 17 0 17 -8 0 -6 5 6 13 14
11 15 16 5 22 -9 5 -11 4 -6 -3 4 -7 2 -12 -3 -12 -14 0 -14 13 1 28 9 9 9 12
-2 12 -10 0 -8 4 5 13 14 11 15 16 5 22 -8 5 -11 4 -7 -2 3 -5 0 -10 -8 -10
-13 0 -12 4 2 19 12 13 13 18 3 18 -9 0 -7 5 5 13 14 11 15 16 5 22 -9 5 -11
4 -6 -3 4 -7 3 -12 -2 -12 -5 0 -9 15 -8 34 1 28 3 32 15 23 12 -10 12 -9 2
11 -7 13 -17 20 -24 15 -9 -5 -9 -3 -1 8 6 8 11 25 9 39 -1 14 5 36 14 50 15
23 15 24 -2 11 -19 -15 -24 -2 -5 17 7 7 9 12 5 12 -4 0 -2 10 4 23 l12 22
-24 -20 c-13 -11 -18 -13 -12 -4 7 8 11 25 8 38 -2 12 0 19 4 16 5 -3 11 2 14
10 4 10 1 12 -11 8 -15 -6 -15 -5 -3 10 11 14 11 17 0 17 -8 0 -6 5 6 13 14
11 15 16 5 22 -9 5 -11 4 -6 -3 4 -7 2 -12 -3 -12 -14 0 -14 13 1 28 9 9 9 12
-2 12 -10 0 -8 4 5 13 14 11 15 16 5 22 -8 5 -11 4 -7 -2 3 -5 0 -10 -8 -10
-13 0 -12 4 2 19 12 13 13 18 3 18 -9 0 -7 5 5 13 14 11 15 16 5 22 -9 5 -11
4 -6 -3 4 -7 3 -12 -2 -12 -5 0 -9 15 -8 34 1 28 3 32 15 23 12 -10 12 -9 2
11 -7 13 -17 20 -24 15 -9 -5 -9 -3 -1 8 6 8 11 25 9 39 -1 14 5 36 14 50 15
23 15 24 -2 11 -19 -15 -24 -2 -5 17 7 7 9 12 5 12 -4 0 -2 10 4 23 l12 22
-24 -20 c-13 -11 -18 -13 -12 -4 7 8 11 25 8 38 -2 12 0 19 4 16 5 -3 11 2 14
10 4 10 1 12 -11 8 -15 -6 -15 -5 -3 10 11 14 11 17 0 17 -8 0 -6 5 6 13 14
11 15 16 5 22 -9 5 -11 4 -6 -3 4 -7 2 -12 -3 -12 -14 0 -14 13 1 28 9 9 9 12
-2 12 -10 0 -8 4 5 13 14 11 15 16 5 22 -8 5 -11 4 -7 -2 3 -5 0 -10 -8 -10
-13 0 -12 4 2 19 12 13 13 18 3 18 -9 0 -7 5 5 13 14 11 15 16 5 22 -9 5 -11
4 -6 -3 4 -7 3 -12 -2 -12 -5 0 -9 15 -8 34 1 28 3 32 15 23 12 -10 12 -9 2
11 -7 13 -17 20 -24 15 -9 -5 -9 -3 -1 8 6 8 11 25 9 39 -1 14 5 36 14 50 15
23 15 24 -2 11 -19 -15 -24 -2 -5 17 7 7 9 12 5 12 -4 0 -2 10 4 23 l12 22
-24 -20 c-13 -11 -18 -13 -12 -4 7 8 11 25 8 38 -2 12 0 19 4 16 5 -3 11 2 14
10 4 10 1 12 -11 8 -15 -6 -15 -5 -3 10 11 14 11 17 0 17 -8 0 -6 5 6 13 14
11 15 16 5 22 -9 5 -11 4 -6 -3 4 -7 2 -12 -3 -12 -14 0 -14 13 1 28 9 9 9 12
-2 12 -10 0 -8 4 5 13 14 11 15 16 5 22 -8 5 -11 4 -7 -2 3 -5 0 -10 -8 -10
-13 0 -12 4 2 19 12 13 13 18 3 18 -9 0 -7 5 5 13 14 11 15 16 5 22 -9 5 -11
4 -6 -3 4 -7 3 -12 -2 -12 -5 0 -9 15 -8 34 1 28 3 32 15 23 12 -10 12 -9 2
11 -7 13 -17 20 -24 15 -9 -5 -9 -3 -1 8 6 8 11 25 9 39 -1 14 5 36 14 50 15
23 15 24 -2 11 -19 -15 -24 -2 -5 17 7 7 9 12 5 12 -4 0 -2 10 4 23 l12 22
-24 -20 c-13 -11 -18 -13 -12 -4 7 8 11 25 8 38 -2 12 0 19 4 16 5 -3 11 2 14
10 4 10 1 12 -10 8 -13 -5 -12 -1 3 23 17 26 17 27 1 15 -19 -15 -24 -2 -5 17
7 7 9 12 5 12 -4 0 -2 10 4 23 l12 22 -24 -20 c-13 -11 -18 -13 -12 -4 7 8 11
25 8 38 -2 12 0 19 4 16 5 -3 11 2 14 10 4 10 1 12 -11 8 -15 -6 -15 -5 -3 10
11 14 11 17 0 17 -8 0 -6 5 6 13 14 11 15 16 5 22 -9 5 -11 4 -6 -3 4 -7 2
-12 -3 -12 -14 0 -14 13 1 28 9 9 9 12 -2 12 -10 0 -8 4 5 13 14 11 15 16 5
22 -8 5 -11 4 -7 -2 3 -5 0 -10 -8 -10 -13 0 -12 4 2 19 12 13 13 18 3 18 -9
0 -7 5 5 13 14 11 15 16 5 22 -9 5 -11 4 -6 -3 4 -7 3 -12 -2 -12 -5 0 -9 15
-8 34 1 28 3 32 15 23 12 -10 12 -9 2 11 -7 13 -17 20 -24 15 -9 -5 -9 -3 -1
8 6 8 11 25 9 39 -1 14 5 36 14 50 15 23 15 24 -2 11 -19 -15 -24 -2 -5 17 7
7 9 12 5 12 -4 0 -2 10 4 23 l12 22 -24 -20 c-13 -11 -18 -13 -12 -4 7 8 11
25 8 38 -2 12 0 19 4 16 5 -3 11 2 14 10 4 10 1 12 -11 8 -15 -6 -15 -5 -3 10
11 14 11 17 0 17 -8 0 -6 5 6 13 14 11 15 16 5 22 -9 5 -11 4 -6 -3 4 -7 2
-12 -3 -12 -14 0 -14 13 1 28 9 9 9 12 -2 12 -10 0 -8 4 5 13 14 11 15 16 5
22 -8 5 -11 4 -7 -2 3 -5 0 -10 -8 -10 -13 0 -12 4 2 19 12 13 13 18 3 18 -9
0 -7 5 5 13 14 11 15 16 5 22 -9 5 -11 4 -6 -3 4 -7 3 -12 -2 -12 -5 0 -9 15
-8 34 1 28 3 32 15 23 12 -10 12 -9 2 11 -7 13 -17 20 -24 15 -9 -5 -9 -3 -1
8 6 8 10 31 9 51 -1 21 1 35 5 33 5 -3 10 2 14 10 3 8 2 14 -2 14 -20 -3 -32
2 -27 11 4 6 10 8 14 6 4 -3 8 1 8 9 0 8 -4 12 -10 8 -5 -3 -7 10 -6 29 2 18
0 38 -4 44 -3 6 -4 21 -2 33 3 16 0 21 -9 18 -9 -4 -12 4 -11 29 2 19 -1 37
-7 40 -5 3 -4 12 4 22 11 13 10 15 -10 10 -19 -5 -21 -4 -11 8 9 12 9 20 0 37
-7 13 -11 27 -10 33 4 21 -2 26 -16 14 -14 -11 -14 -10 -6 12 7 20 5 28 -9 41
-11 9 -17 26 -16 41 2 14 0 25 -3 24 -3 0 -13 0 -21 1 -13 1 -13 2 0 11 10 6
11 10 3 10 -7 0 -13 7 -13 16 0 9 -5 12 -12 8 -8 -5 -9 0 -6 14 4 12 1 25 -4
29 -7 4 -8 1 -3 -7 5 -9 4 -11 -3 -6 -7 4 -12 19 -12 33 0 21 -2 23 -15 13
-12 -10 -14 -8 -10 9 3 16 -1 21 -16 21 -12 0 -17 4 -14 11 4 6 -3 20 -15 31
-12 11 -19 26 -16 34 3 9 0 11 -11 7 -9 -4 -14 -2 -10 3 3 6 -5 18 -18 28 -14
10 -22 22 -19 27 3 5 -2 6 -11 3 -11 -4 -14 -2 -9 9 4 12 0 14 -18 10 -13 -3
-19 -1 -13 4 14 11 17 33 5 33 -6 0 -10 -6 -10 -12 -1 -7 -6 -3 -13 10 -7 12
-16 20 -19 16 -4 -3 -12 4 -18 16 -7 14 -17 19 -27 16 -13 -5 -14 -4 -3 9 11
13 10 14 -5 9 -14 -6 -16 -4 -10 6 5 9 4 11 -4 6 -6 -4 -14 0 -17 8 -3 9 -10
13 -15 10 -5 -3 -9 0 -9 6 0 6 -4 9 -9 5 -5 -3 -12 4 -16 15 -5 17 -10 18 -27
9 -15 -8 -19 -8 -13 1 4 7 -1 13 -14 17 -12 3 -21 12 -21 21 0 13 -3 13 -12 4
-10 -10 -15 -7 -26 10 -11 19 -12 19 -7 3 6 -18 4 -18 -15 3 -12 12 -25 20
-30 17 -4 -3 -10 0 -12 6 -2 6 -18 12 -36 12 -23 1 -31 6 -27 16 3 9 0 11 -10
7 -8 -3 -15 0 -15 6 0 9 -3 9 -12 0 -9 -9 -14 -7 -23 5 -14 19 -45 26 -41 10
2 -7 1 -9 -2 -4 -2 4 -13 12 -24 18 -15 8 -19 8 -14 0 5 -8 0 -8 -16 -2 -13 4
-33 7 -45 6 -12 -1 -20 2 -17 7 3 4 -3 8 -13 8 -11 0 -25 6 -32 13 -11 10 -13
9 -8 -6 5 -14 3 -16 -12 -8 -12 7 -22 6 -30 -2 -7 -7 -12 -7 -11 -2 5 24 -1
27 -22 9 -12 -10 -18 -14 -15 -7 4 6 2 15 -5 19 -17 11 -218 12 -212 2 3 -5
10 -5 16 -2 7 4 8 2 4 -4 -7 -11 -36 -6 -36 7 0 3 -87 6 -194 6 -107 0 -192
-3 -189 -8 2 -4 9 -4 15 -1 7 4 8 2 4 -4 -7 -11 -36 -6 -36 7 0 3 -87 6 -194
6 -107 0 -192 -3 -189 -8 2 -4 9 -4 15 -1 7 4 8 2 4 -4 -7 -11 -36 -6 -36 7 0
3 -69 6 -154 6 -85 0 -152 -3 -149 -8 2 -4 9 -4 15 -1 7 4 8 2 4 -4 -7 -11
-36 -6 -36 7 0 3 -51 6 -114 6 -63 0 -112 -3 -109 -8 2 -4 9 -4 15 -1 7 4 8 2
4 -4 -7 -11 -36 -6 -36 7 0 3 -123 6 -274 6 -151 0 -272 -3 -269 -8 2 -4 9 -4
15 -1 7 4 8 2 4 -4 -7 -11 -36 -6 -36 7 0 3 -87 6 -194 6 -107 0 -192 -3 -189
-8 2 -4 9 -4 15 -1 7 4 8 2 4 -4 -7 -11 -36 -6 -36 7 0 3 -87 6 -194 6 -107 0
-192 -3 -189 -8 2 -4 9 -4 15 -1 7 4 8 2 4 -4 -7 -11 -36 -6 -36 7 0 3 -69 6
-154 6 -85 0 -152 -3 -149 -8 2 -4 9 -4 15 -1 7 4 8 2 4 -4 -7 -11 -36 -6 -36
7 0 3 -51 6 -114 6 -63 0 -112 -3 -109 -8 2 -4 9 -4 15 -1 7 4 8 2 4 -4 -7
-11 -36 -6 -36 7 0 7 -238 9 -262 3z m82 -14 c0 -4 -4 -8 -9 -8 -6 0 -12 4
-15 8 -3 5 1 9 9 9 8 0 15 -4 15 -9z m95 3 c-8 -7 -45 -9 -50 -1 -2 3 9 6 25
6 17 0 27 -2 25 -5z m191 -3 c3 -4 -1 -5 -10 -4 -8 1 -18 5 -22 8 -3 4 1 5 10
4 8 -1 18 -5 22 -8z m48 0 c-3 -4 -11 -5 -19 -1 -21 7 -19 12 4 10 11 0 18 -5
15 -9z m186 6 c0 -8 -19 -13 -24 -6 -3 5 1 9 9 9 8 0 15 -2 15 -3z m40 2 c0
-2 -7 -7 -16 -10 -8 -3 -12 -2 -9 4 6 10 25 14 25 6z m46 -8 c3 -4 -1 -5 -10
-4 -8 1 -18 5 -22 8 -3 4 1 5 10 4 8 -1 18 -5 22 -8z m48 0 c-3 -4 -11 -5 -19
-1 -21 7 -19 12 4 10 11 0 18 -5 15 -9z m186 6 c0 -8 -19 -13 -24 -6 -3 5 1 9
9 9 8 0 15 -2 15 -3z m54 -3 c-8 -8 -43 -8 -38 0 2 4 13 7 24 6 10 -1 17 -3
14 -6z m66 -3 c0 -4 -4 -8 -9 -8 -6 0 -12 4 -15 8 -3 5 1 9 9 9 8 0 15 -4 15
-9z m95 3 c-8 -7 -45 -9 -50 -1 -2 3 9 6 25 6 17 0 27 -2 25 -5z m225 4 c0 -7
-30 -13 -34 -7 -3 4 4 9 15 9 10 1 19 0 19 -2z m80 0 c0 -7 -30 -13 -34 -7 -3
4 4 9 15 9 10 1 19 0 19 -2z m46 -7 c3 -4 -1 -5 -10 -4 -8 1 -18 5 -22 8 -3 4
1 5 10 4 8 -1 18 -5 22 -8z m48 0 c-3 -4 -11 -5 -19 -1 -21 7 -19 12 4 10 11
0 18 -5 15 -9z m186 6 c0 -8 -19 -13 -24 -6 -3 5 1 9 9 9 8 0 15 -2 15 -3z
m40 2 c0 -2 -7 -7 -16 -10 -8 -3 -12 -2 -9 4 6 10 25 14 25 6z m80 -1 c0 -7
-30 -13 -34 -7 -3 4 4 9 15 9 10 1 19 0 19 -2z m95 -4 c-8 -7 -45 -9 -50 -1
-2 3 9 6 25 6 17 0 27 -2 25 -5z m65 -3 c0 -4 -4 -8 -9 -8 -6 0 -12 4 -15 8
-3 5 1 9 9 9 8 0 15 -4 15 -9z m95 3 c-8 -7 -45 -9 -50 -1 -2 3 9 6 25 6 17 0
27 -2 25 -5z m191 -3 c3 -4 -1 -5 -10 -4 -8 1 -18 5 -22 8 -3 4 1 5 10 4 8 -1
18 -5 22 -8z m48 0 c-3 -4 -11 -5 -19 -1 -21 7 -19 12 4 10 11 0 18 -5 15 -9z
m186 6 c0 -8 -19 -13 -24 -6 -3 5 1 9 9 9 8 0 15 -2 15 -3z m40 2 c0 -2 -7 -7
-16 -10 -8 -3 -12 -2 -9 4 6 10 25 14 25 6z m46 -8 c3 -4 -1 -5 -10 -4 -8 1
-18 5 -22 8 -3 4 1 5 10 4 8 -1 18 -5 22 -8z m48 0 c-3 -4 -11 -5 -19 -1 -21
7 -19 12 4 10 11 0 18 -5 15 -9z m186 6 c0 -8 -19 -13 -24 -6 -3 5 1 9 9 9 8
0 15 -2 15 -3z m54 -3 c-8 -8 -43 -8 -38 0 2 4 13 7 24 6 10 -1 17 -3 14 -6z
m66 -3 c0 -4 -4 -8 -9 -8 -6 0 -12 4 -15 8 -3 5 1 9 9 9 8 0 15 -4 15 -9z m95
3 c-8 -7 -45 -9 -50 -1 -2 3 9 6 25 6 17 0 27 -2 25 -5z m225 4 c0 -7 -30 -13
-34 -7 -3 4 4 9 15 9 10 1 19 0 19 -2z m80 0 c0 -7 -30 -13 -34 -7 -3 4 4 9
15 9 10 1 19 0 19 -2z m46 -7 c3 -4 -1 -5 -10 -4 -8 1 -18 5 -22 8 -3 4 1 5
10 4 8 -1 18 -5 22 -8z m48 0 c-3 -4 -11 -5 -19 -1 -21 7 -19 12 4 10 11 0 18
-5 15 -9z m186 6 c0 -8 -19 -13 -24 -6 -3 5 1 9 9 9 8 0 15 -2 15 -3z m40 2
c0 -2 -7 -7 -16 -10 -8 -3 -12 -2 -9 4 6 10 25 14 25 6z m70 -2 c0 -8 -19 -13
-24 -6 -3 5 1 9 9 9 8 0 15 -2 15 -3z m-4270 -133 c0 -5 -7 -12 -16 -15 -14
-5 -15 -4 -4 9 14 17 20 19 20 6z m4485 -911 c3 -6 -1 -7 -9 -4 -18 7 -21 14
-7 14 6 0 13 -4 16 -10z m-810 -309 c3 -5 2 -12 -3 -15 -5 -3 -9 1 -9 9 0 17
3 19 12 6z m0 -160 c3 -5 2 -12 -3 -15 -5 -3 -9 1 -9 9 0 17 3 19 12 6z m0
-240 c3 -5 2 -12 -3 -15 -5 -3 -9 1 -9 9 0 17 3 19 12 6z m0 -240 c3 -5 2 -12
-3 -15 -5 -3 -9 1 -9 9 0 17 3 19 12 6z m-884 -164 c-10 -9 -11 -8 -5 6 3 10
9 15 12 12 3 -3 0 -11 -7 -18z m884 4 c3 -5 2 -12 -3 -15 -5 -3 -9 1 -9 9 0
17 3 19 12 6z m0 -51 c3 -5 1 -10 -4 -10 -6 0 -11 5 -11 10 0 6 2 10 4 10 3 0
8 -4 11 -10z m-1420 -1709 c3 -5 2 -12 -3 -15 -5 -3 -9 1 -9 9 0 17 3 19 12 6z
m-91 -1209 c3 -5 -1 -9 -9 -9 -8 0 -12 4 -9 9 3 4 7 8 9 8 2 0 6 -4 9 -8z
m-2614 -458 c0 -8 -19 -13 -24 -6 -3 5 1 9 9 9 8 0 15 -2 15 -3z m5690 -18 c0
-3 -4 -8 -10 -11 -5 -3 -10 -1 -10 4 0 6 5 11 10 11 6 0 10 -2 10 -4z m-4656
-524 c3 -5 -1 -9 -9 -9 -8 0 -12 4 -9 9 3 4 7 8 9 8 2 0 6 -4 9 -8z m120 0 c3
-5 -1 -9 -9 -9 -8 0 -12 4 -9 9 3 4 7 8 9 8 2 0 6 -4 9 -8z m100 0 c3 -5 -1
-9 -9 -9 -8 0 -12 4 -9 9 3 4 7 8 9 8 2 0 6 -4 9 -8z m40 -4 c-3 -4 -9 -8 -15
-8 -5 0 -9 4 -9 8 0 5 7 9 15 9 8 0 12 -4 9 -9z m40 4 c3 -5 -1 -9 -9 -9 -8 0
-12 4 -9 9 3 4 7 8 9 8 2 0 6 -4 9 -8z m60 0 c3 -5 -1 -9 -9 -9 -8 0 -12 4 -9
9 3 4 7 8 9 8 2 0 6 -4 9 -8z m120 0 c3 -5 -1 -9 -9 -9 -8 0 -12 4 -9 9 3 4 7
8 9 8 2 0 6 -4 9 -8z m60 0 c3 -5 -1 -9 -9 -9 -8 0 -12 4 -9 9 3 4 7 8 9 8 2
0 6 -4 9 -8z m60 0 c3 -5 -1 -9 -9 -9 -8 0 -12 4 -9 9 3 4 7 8 9 8 2 0 6 -4 9
-8z m100 0 c3 -5 -1 -9 -9 -9 -8 0 -12 4 -9 9 3 4 7 8 9 8 2 0 6 -4 9 -8z m50
-3 c3 -3 -4 -5 -14 -6 -11 -1 -20 2 -20 7 0 8 25 8 34 -1z m120 3 c3 -5 -1 -9
-9 -9 -8 0 -12 4 -9 9 3 4 7 8 9 8 2 0 6 -4 9 -8z m120 0 c3 -5 -1 -9 -9 -9
-8 0 -12 4 -9 9 3 4 7 8 9 8 2 0 6 -4 9 -8z m90 0 c3 -5 -1 -9 -9 -9 -8 0 -12
4 -9 9 3 4 7 8 9 8 2 0 6 -4 9 -8z m100 0 c3 -5 -1 -9 -9 -9 -8 0 -12 4 -9 9
3 4 7 8 9 8 2 0 6 -4 9 -8z m40 -4 c-3 -4 -9 -8 -15 -8 -5 0 -9 4 -9 8 0 5 7
9 15 9 8 0 12 -4 9 -9z m40 4 c3 -5 -1 -9 -9 -9 -8 0 -12 4 -9 9 3 4 7 8 9 8
2 0 6 -4 9 -8z m60 0 c3 -5 -1 -9 -9 -9 -8 0 -12 4 -9 9 3 4 7 8 9 8 2 0 6 -4
9 -8z m120 0 c3 -5 -1 -9 -9 -9 -8 0 -12 4 -9 9 3 4 7 8 9 8 2 0 6 -4 9 -8z
m60 0 c3 -5 -1 -9 -9 -9 -8 0 -12 4 -9 9 3 4 7 8 9 8 2 0 6 -4 9 -8z m60 0 c3
-5 -1 -9 -9 -9 -8 0 -12 4 -9 9 3 4 7 8 9 8 2 0 6 -4 9 -8z m100 0 c3 -5 -1
-9 -9 -9 -8 0 -12 4 -9 9 3 4 7 8 9 8 2 0 6 -4 9 -8z m50 -3 c3 -3 -4 -5 -14
-6 -11 -1 -20 2 -20 7 0 8 25 8 34 -1z m120 3 c3 -5 -1 -9 -9 -9 -8 0 -12 4
-9 9 3 4 7 8 9 8 2 0 6 -4 9 -8z m120 0 c3 -5 -1 -9 -9 -9 -8 0 -12 4 -9 9 3
4 7 8 9 8 2 0 6 -4 9 -8z m90 0 c3 -5 -1 -9 -9 -9 -8 0 -12 4 -9 9 3 4 7 8 9
8 2 0 6 -4 9 -8z m100 0 c3 -5 -1 -9 -9 -9 -8 0 -12 4 -9 9 3 4 7 8 9 8 2 0 6
-4 9 -8z m220 0 c3 -5 -1 -9 -9 -9 -8 0 -12 4 -9 9 3 4 7 8 9 8 2 0 6 -4 9 -8z
m70 0 c3 -5 -1 -9 -9 -9 -8 0 -12 4 -9 9 3 4 7 8 9 8 2 0 6 -4 9 -8z m250 0
c3 -5 -1 -9 -9 -9 -8 0 -12 4 -9 9 3 4 7 8 9 8 2 0 6 -4 9 -8z m70 0 c3 -5 -1
-9 -9 -9 -8 0 -12 4 -9 9 3 4 7 8 9 8 2 0 6 -4 9 -8z m250 0 c3 -5 -1 -9 -9
-9 -8 0 -12 4 -9 9 3 4 7 8 9 8 2 0 6 -4 9 -8z m70 0 c3 -5 -1 -9 -9 -9 -8 0
-12 4 -9 9 3 4 7 8 9 8 2 0 6 -4 9 -8z m250 0 c3 -5 -1 -9 -9 -9 -8 0 -12 4
-9 9 3 4 7 8 9 8 2 0 6 -4 9 -8z m70 0 c3 -5 -1 -9 -9 -9 -8 0 -12 4 -9 9 3 4
7 8 9 8 2 0 6 -4 9 -8z m250 0 c3 -5 -1 -9 -9 -9 -8 0 -12 4 -9 9 3 4 7 8 9 8
2 0 6 -4 9 -8z"/>
<path d="M5546 6548 c3 -5 10 -6 15 -3 13 9 11 12 -6 12 -8 0 -12 -4 -9 -9z"/>
<path d="M500 5830 c-8 -5 -12 -12 -9 -15 4 -3 12 1 19 10 14 17 11 19 -10 5z"/>
<path d="M6540 5361 c0 -6 4 -13 10 -16 6 -3 7 1 4 9 -7 18 -14 21 -14 7z"/>
<path d="M6540 4881 c0 -6 4 -13 10 -16 6 -3 7 1 4 9 -7 18 -14 21 -14 7z"/>
<path d="M6540 4241 c0 -6 4 -13 10 -16 6 -3 7 1 4 9 -7 18 -14 21 -14 7z"/>
<path d="M6540 3761 c0 -6 4 -13 10 -16 6 -3 7 1 4 9 -7 18 -14 21 -14 7z"/>
<path d="M6540 3281 c0 -6 4 -13 10 -16 6 -3 7 1 4 9 -7 18 -14 21 -14 7z"/>
<path d="M6540 2801 c0 -6 4 -13 10 -16 6 -3 7 1 4 9 -7 18 -14 21 -14 7z"/>
<path d="M6540 2321 c0 -6 4 -13 10 -16 6 -3 7 1 4 9 -7 18 -14 21 -14 7z"/>
<path d="M6540 1841 c0 -6 4 -13 10 -16 6 -3 7 1 4 9 -7 18 -14 21 -14 7z"/>
<path d="M6540 1721 c0 -6 4 -13 10 -16 6 -3 7 1 4 9 -7 18 -14 21 -14 7z"/>
<path d="M5805 530 c-3 -6 1 -7 9 -4 18 7 21 14 7 14 -6 0 -13 -4 -16 -10z"/>
</g>
</svg>
